<?xml version="1.0" encoding="UTF-8" standalone="no"?>
<svg width="170px" height="170px" viewBox="0 0 170 170" version="1.1" xmlns="http://www.w3.org/2000/svg" xmlns:xlink="http://www.w3.org/1999/xlink">
    <!-- Generator: Sketch 39.1 (31720) - http://www.bohemiancoding.com/sketch -->
    <title>target</title>
    <desc>Created with Sketch.</desc>
    <defs></defs>
    <g id="Page-1" stroke="none" stroke-width="1" fill="none" fill-rule="evenodd">
        <g id="Branding" transform="translate(-44.000000, -551.000000)">
            <g id="target" transform="translate(44.000000, 551.000000)">
                <g id="Capa_1">
                    <g id="Group">
                        <path d="M169.694531,20.2333203 C169.284473,19.2412109 168.314277,18.59375 167.240488,18.59375 L151.302988,18.59375 L151.302988,2.65625 C151.302988,1.58246094 150.657187,0.61359375 149.663418,0.202207031 C148.667324,-0.207519531 147.528457,0.0166015625 146.768437,0.777949219 L128.174687,19.3716992 C127.676641,19.8697461 127.396406,20.5454297 127.396406,21.249668 L127.396406,39.843418 C127.396406,41.310332 128.584414,42.499668 130.052656,42.499668 L148.646406,42.499668 C149.351973,42.499668 150.026328,42.2194336 150.524375,41.7213867 L169.118125,23.1276367 C169.878477,22.3682812 170.106914,21.2267578 169.694531,20.2333203 L169.694531,20.2333203 Z" id="Shape" fill="#00ABFF"></path>
                        <path d="M128.174687,41.7223828 C128.655137,42.202832 129.318867,42.500332 130.052988,42.500332 L148.646738,42.500332 C149.352305,42.500332 150.02666,42.2200977 150.524707,41.7220508 L169.118457,23.1283008 C169.878477,22.3682813 170.106914,21.2267578 169.694199,20.2333203 C169.284473,19.2412109 168.314277,18.59375 167.240488,18.59375 L151.302988,18.59375 L128.174687,41.7223828 L128.174687,41.7223828 Z" id="Shape" fill="#4082FD"></path>
                        <circle id="Oval" fill="#2980B9" cx="74.2717383" cy="95.625" r="74.2717383"></circle>
                        <circle id="Oval" fill="#FFFFFF" cx="74.2717383" cy="95.625" r="63.75"></circle>
                        <circle id="Oval" fill="#2980B9" cx="74.2717383" cy="95.625" r="53.0217383"></circle>
                        <circle id="Oval" fill="#FFFFFF" cx="74.2717383" cy="95.625" r="42.5"></circle>
                        <circle id="Oval" fill="#2980B9" cx="74.2717383" cy="95.625" r="31.875"></circle>
                        <circle id="Oval" fill="#FFFFFF" cx="74.2717383" cy="95.625" r="21.25"></circle>
                        <circle id="Oval" fill="#2980B9" cx="74.2717383" cy="95.625" r="10.625"></circle>
                        <path d="M74.2717383,98.28125 C73.5920703,98.28125 72.9124023,98.0219336 72.3937695,97.5029687 C71.3561719,96.4653711 71.3561719,94.7842969 72.3937695,93.7470312 L122.86252,43.2782812 C123.900117,42.2406836 125.580859,42.2406836 126.618457,43.2782812 C127.656055,44.3158789 127.656055,45.9966211 126.618457,47.0342187 L76.149707,97.5029687 C75.6310742,98.0219336 74.9514062,98.28125 74.2717383,98.28125 L74.2717383,98.28125 Z" id="Shape" fill="#B9BBC1"></path>
                        <path d="M87.5529883,87.65625 C86.1936523,87.65625 84.8346484,87.1376172 83.7970508,86.0996875 C81.7218555,84.0258203 81.7218555,80.6613477 83.7970508,78.5874805 L129.503145,32.8817187 C131.57834,30.8065234 134.940156,30.8065234 137.015352,32.8817187 C139.090547,34.9555859 139.090547,38.3200586 137.015352,40.3939258 L91.3092578,86.1000195 C90.2716602,87.1376172 88.9123242,87.65625 87.5529883,87.65625 L87.5529883,87.65625 Z" id="Shape" fill="#5C546A"></path>
                    </g>
                </g>
            </g>
        </g>
    </g>
</svg>