<?xml version="1.0" encoding="UTF-8" standalone="no"?>
<svg width="137px" height="137px" viewBox="0 0 137 137" version="1.1" xmlns="http://www.w3.org/2000/svg" xmlns:xlink="http://www.w3.org/1999/xlink">
    <!-- Generator: Sketch 39.1 (31720) - http://www.bohemiancoding.com/sketch -->
    <title>Fill 16</title>
    <desc>Created with Sketch.</desc>
    <defs></defs>
    <g id="Page-1" stroke="none" stroke-width="1" fill="none" fill-rule="evenodd">
        <g id="Home-Page" transform="translate(-972.000000, -799.000000)" fill="#2980B9">
            <path d="M1034.21773,805.221773 L1034.21773,854.995955 C1034.21773,856.738051 1033.61629,858.210537 1032.41756,859.413413 C1031.21054,860.616289 1029.73805,861.217727 1027.99595,861.217727 L978.221773,861.217727 C976.479676,861.217727 975.00719,860.616289 973.804314,859.413413 C972.601438,858.210537 972,856.738051 972,854.995955 L972,805.221773 C972,803.479676 972.601438,802.00719 973.804314,800.804314 C975.00719,799.605586 976.479676,799 978.221773,799 L1027.99595,799 C1029.73805,799 1031.21054,799.605586 1032.41756,800.804314 C1033.61629,802.00719 1034.21773,803.479676 1034.21773,805.221773 C1034.21773,805.221773 1034.21773,803.479676 1034.21773,805.221773 L1034.21773,805.221773 L1034.21773,805.221773 Z M1034.21773,879.883045 L1034.21773,929.657227 C1034.21773,931.399324 1033.61629,932.87181 1032.41756,934.074686 C1031.21054,935.277562 1029.73805,935.879 1027.99595,935.879 L978.221773,935.879 C976.479676,935.879 975.00719,935.277562 973.804314,934.074686 C972.601438,932.87181 972,931.399324 972,929.657227 L972,879.883045 C972,878.140949 972.601438,876.668463 973.804314,875.465587 C975.00719,874.266859 976.479676,873.661273 978.221773,873.661273 L1027.99595,873.661273 C1029.73805,873.661273 1031.21054,874.266859 1032.41756,875.465587 C1033.61629,876.668463 1034.21773,878.140949 1034.21773,879.883045 C1034.21773,879.883045 1034.21773,878.140949 1034.21773,879.883045 L1034.21773,879.883045 L1034.21773,879.883045 Z M1108.879,805.221773 L1108.879,854.995955 C1108.879,856.738051 1108.27756,858.210537 1107.07883,859.413413 C1105.87181,860.616289 1104.39932,861.217727 1102.65723,861.217727 L1052.88305,861.217727 C1051.14095,861.217727 1049.66846,860.616289 1048.46559,859.413413 C1047.26271,858.210537 1046.66127,856.738051 1046.66127,854.995955 L1046.66127,805.221773 C1046.66127,803.479676 1047.26271,802.00719 1048.46559,800.804314 C1049.66846,799.605586 1051.14095,799 1052.88305,799 L1102.65723,799 C1104.39932,799 1105.87181,799.605586 1107.07883,800.804314 C1108.27756,802.00719 1108.879,803.479676 1108.879,805.221773 C1108.879,805.221773 1108.879,803.479676 1108.879,805.221773 L1108.879,805.221773 L1108.879,805.221773 Z M1108.879,879.883045 L1108.879,929.657227 C1108.879,931.399324 1108.27756,932.87181 1107.07883,934.074686 C1105.87181,935.277562 1104.39932,935.879 1102.65723,935.879 L1052.88305,935.879 C1051.14095,935.879 1049.66846,935.277562 1048.46559,934.074686 C1047.26271,932.87181 1046.66127,931.399324 1046.66127,929.657227 L1046.66127,879.883045 C1046.66127,878.140949 1047.26271,876.668463 1048.46559,875.465587 C1049.66846,874.266859 1051.14095,873.661273 1052.88305,873.661273 L1102.65723,873.661273 C1104.39932,873.661273 1105.87181,874.266859 1107.07883,875.465587 C1108.27756,876.668463 1108.879,878.140949 1108.879,879.883045 L1108.879,879.883045 Z" id="Fill-16"></path>
        </g>
    </g>
</svg>